HIERARCHY
ROOT Hips
{
	OFFSET 0.000000 0.000000 0.000000
	CHANNELS 6 Xposition Yposition Zposition Zrotation Yrotation Xrotation 
	JOINT LHipJoint
	{
		OFFSET 0.000000 0.000000 0.000000
		CHANNELS 3 Zrotation Yrotation Xrotation
		JOINT LeftUpLeg
		{
			OFFSET 1.363060 -1.794630 0.839290
			CHANNELS 3 Zrotation Yrotation Xrotation
			JOINT LeftLeg
			{
				OFFSET 2.448110 -6.726130 0.000000
				CHANNELS 3 Zrotation Yrotation Xrotation
				JOINT LeftFoot
				{
					OFFSET 2.562200 -7.039590 0.000000
					CHANNELS 3 Zrotation Yrotation Xrotation
					JOINT LeftToeBase
					{
						OFFSET 0.157640 -0.433110 2.322550
						CHANNELS 3 Zrotation Yrotation Xrotation
						End Site
						{
							OFFSET 0.000000 0.000000 0.000000
						}
					}
				}
			}
		}
	}
	JOINT RHipJoint
	{
		OFFSET 0.000000 0.000000 0.000000
		CHANNELS 3 Zrotation Yrotation Xrotation
		JOINT RightUpLeg
		{
			OFFSET -1.305520 -1.794630 0.839290
			CHANNELS 3 Zrotation Yrotation Xrotation
			JOINT RightLeg
			{
				OFFSET -2.542530 -6.985550 0.000000
				CHANNELS 3 Zrotation Yrotation Xrotation
				JOINT RightFoot
				{
					OFFSET -2.568260 -7.056230 0.000000
					CHANNELS 3 Zrotation Yrotation Xrotation
					JOINT RightToeBase
					{
						OFFSET -0.164730 -0.452590 2.363150
						CHANNELS 3 Zrotation Yrotation Xrotation
						End Site
						{
							OFFSET 0.000000 0.000000 0.000000
						}
					}
				}
			}
		}
	}
}
MOTION
Frames: 13
Frame Time: 0.008333
6.539490 16.892141 -5.209393 -172.804398 44.969698 -174.832776 -8.909717 2.065796 0.105971 -20.281502 21.441038 -31.564004 -2.616007 0.126762 20.867819 3.371783 16.929966 -14.700196 178.019100 -0.000000 -4.849000 11.096252 -4.783991 -0.882740 -2.338198 -18.455138 10.021261 -0.412122 -2.201955 27.309662 -1.021740 1.728196 31.076320 1.483500 -0.000000 -95.668500
6.621386 16.889771 -5.336606 -173.017254 44.389670 -174.985339 -8.878625 2.154091 0.077779 -20.392527 21.385282 -31.247591 -2.636956 0.187961 21.442592 3.265686 16.396362 -14.684331 178.057100 -0.000000 -4.976400 11.279980 -4.690622 -0.885648 -2.670853 -18.620532 8.983596 -0.562609 -2.219600 29.552335 -1.235366 1.429224 33.138969 1.446000 -0.000000 -94.264600
6.699770 16.886676 -5.460822 -173.244111 43.733899 -175.145471 -8.846613 2.230226 0.055316 -20.479155 21.188727 -30.874495 -2.646645 0.246091 22.033530 3.181911 15.944220 -14.765841 178.059499 -0.000000 -5.016400 11.455913 -4.571413 -0.915628 -2.942779 -18.791235 7.889145 -0.684423 -2.232560 31.897919 -1.454412 0.829102 34.909971 1.181900 0.000000 -91.919800
6.774579 16.882848 -5.582325 -173.472780 43.016247 -175.304599 -8.815206 2.294228 0.037889 -20.540082 20.871800 -30.441483 -2.645709 0.299794 22.622439 3.121470 15.583834 -14.941021 178.028000 -0.000000 -4.964500 11.618616 -4.433397 -0.971019 -3.143718 -18.955080 6.742081 -0.778361 -2.250253 34.321173 -1.668905 -0.093174 36.270141 0.662200 -0.000000 -88.916400
6.845811 16.878537 -5.701621 -173.691772 42.255061 -175.452731 -8.786291 2.346883 0.024325 -20.576158 20.465224 -29.952537 -2.636241 0.347932 23.188731 3.082855 15.313031 -15.199295 177.966599 0.000000 -4.821800 11.763498 -4.284825 -1.047194 -3.262971 -19.093504 5.540122 -0.849986 -2.282137 36.801098 -1.870172 -1.319975 37.111904 -0.102100 -0.000001 -85.429700
6.913493 16.874048 -5.819293 -173.891359 41.471235 -175.580546 -8.761877 2.389674 0.013280 -20.590513 20.005662 -29.416601 -2.621286 0.389544 23.711014 3.062445 15.118748 -15.524421 177.880900 0.000001 -4.591100 11.887451 -4.133790 -1.136876 -3.292311 -19.184428 4.276564 -0.907772 -2.335579 39.316455 -2.051397 -2.789599 37.355184 -1.052700 -0.000001 -81.594300
6.977703 16.869800 -5.935976 -174.063843 40.686144 -175.678362 -8.744249 2.424022 0.002755 -20.586206 19.532687 -28.848191 -2.604422 0.423963 24.170432 3.054941 14.978586 -15.897126 177.778100 0.000000 -4.281000 11.988343 -3.986445 -1.229554 -3.220018 -19.197310 2.949054 -0.960625 -2.412644 41.823685 -2.210893 -4.431303 36.992764 -2.112300 -0.000000 -77.972701
7.038593 16.866301 -6.052296 -174.205485 39.919837 -175.739987 -8.735448 2.451813 -0.008749 -20.567037 19.083001 -28.261585 -2.589123 0.450593 24.550107 3.054341 14.866209 -16.296146 177.666500 -0.000001 -3.899900 12.065675 -3.847892 -1.314979 -3.043761 -19.108028 1.551732 -1.015518 -2.513458 44.297132 -2.345001 -6.127801 36.022005 -3.166100 -0.000001 -74.539201
7.096276 16.864035 -6.168777 -174.314737 39.188172 -175.761217 -8.737429 2.474531 -0.022833 -20.535238 18.687380 -27.670288 -2.578297 0.469080 24.837791 3.054398 14.753681 -16.700163 177.555100 -0.000000 -3.459700 12.119664 -3.720673 -1.382795 -2.763278 -18.892916 0.086848 -1.076448 -2.633713 46.695636 -2.453227 -7.780234 34.496676 -4.115900 0.000000 -71.493500
7.150881 16.863451 -6.285820 -174.392823 38.502551 -175.741398 -8.751692 2.493394 -0.040638 -20.491942 18.367916 -27.084892 -2.574010 0.479253 25.025796 3.049487 14.615964 -17.089418 177.452900 -0.000001 -2.972000 12.151224 -3.605498 -1.424419 -2.385410 -18.535828 -1.437030 -1.143976 -2.766915 48.978028 -2.535614 -9.303358 32.494856 -4.883600 0.000000 -68.900700
7.202526 16.864961 -6.403665 -174.442090 37.867705 -175.682436 -8.779264 2.509126 -0.063048 -20.436767 18.135298 -26.510021 -2.577172 0.481190 25.111154 3.035177 14.434065 -17.446740 177.367601 -0.000000 -2.449700 12.161615 -3.501142 -1.434181 -1.922967 -18.029425 -3.003171 -1.215423 -2.905072 51.100252 -2.593656 -10.640748 30.121701 -5.426700 0.000000 -66.814400
7.251379 16.868773 -6.522352 -174.468525 37.282038 -175.592365 -8.820199 2.522379 -0.090196 -20.369131 17.988552 -25.942599 -2.587648 0.475182 25.094366 3.008789 14.197793 -17.758824 177.305000 -0.000000 -1.906601 12.152781 -3.405519 -1.411174 -1.399862 -17.382853 -4.591048 -1.286200 -3.041595 53.031438 -2.627071 -11.744805 27.461610 -5.720900 0.000000 -64.987100
7.297515 16.875070 -6.641810 -174.475130 36.737458 -175.478768 -8.874755 2.532557 -0.122401 -20.284796 17.917293 -25.375172 -2.603974 0.461792 24.980392 2.969270 13.905442 -18.015606 177.268600 0.000000 -1.350800 12.125710 -3.314908 -1.355583 -0.834286 -16.604276 -6.169053 -1.349914 -3.168006 54.722734 -2.641545 -12.625846 24.665844 -5.799500 -0.000000 -63.658901
